<?xml version="1.0" encoding="utf-8"?>
<!-- Generator: Adobe Illustrator 21.0.0, SVG Export Plug-In . SVG Version: 6.00 Build 0)  -->
<svg version="1.1" id="图层_1" xmlns="http://www.w3.org/2000/svg" xmlns:xlink="http://www.w3.org/1999/xlink" x="0px" y="0px"
	 viewBox="0 0 222 222" style="enable-background:new 0 0 222 222;" xml:space="preserve">
<style type="text/css">
	.st0{fill:#FFFFFF;}
</style>
<g>
	<path class="st0" d="M43.4,203.2c19.6-2.3,34.7-15.9,34.7-35.6c0-10-4.3-19.1-10.8-25.6C57,130.8,50.7,115.8,50.7,99.4
		c0-16.8,6.6-32,17.3-43.3C91.9,30.2,127.2,8.6,164.7,0h-128C16.5,0,0,16.5,0,36.7v148.6c0,7.3,2.2,14.1,5.9,19.8
		C17.8,206.4,32.7,204.5,43.4,203.2z"/>
	<path class="st0" d="M199.3,24.2c-42.7,0-86.7,23-112.7,52.8c-5,6.1-8.1,13.9-8.1,22.4c0,9.3,3.6,17.7,9.5,24
		c11.1,11.4,17.9,27,17.9,44.2c0,23.1-12.3,43.3-30.7,54.4h110.1c20.2,0,36.7-16.5,36.7-36.7V36.7c0-4.7-0.9-9.3-2.6-13.4
		C212.7,23.4,206,23.7,199.3,24.2z"/>
</g>
</svg>
