<?xml version="1.0" encoding="utf-8"?>
<!-- Generator: Adobe Illustrator 21.0.0, SVG Export Plug-In . SVG Version: 6.00 Build 0)  -->
<svg version="1.1" id="图层_1" xmlns="http://www.w3.org/2000/svg" xmlns:xlink="http://www.w3.org/1999/xlink" x="0px" y="0px"
	 viewBox="0 0 552 222" style="enable-background:new 0 0 552 222;" xml:space="preserve">
<style type="text/css">
	.st0{fill:#FFFFFF;}
</style>
<g>
	<path class="st0" d="M475.1,116c0,4-3.2,7.2-7.2,7.2h-4.7v5.1h16.8c5.4,0,9.9-4.4,9.9-9.9v-54h-14.7V116L475.1,116z M454.4,79.5
		h14.4l-7.6,34.6c-1.5,5.2-4.3,9.7-9.6,9.7h-13.1v-5h1.3c3.9,0,5.9-3.1,7.1-7.1L454.4,79.5L454.4,79.5z M524.7,118.8
		c-3.9,0-5.9-3.1-7.1-7.1l-7.6-32.2h-14.4l7.6,34.6c1.5,5.2,4.3,9.6,9.6,9.6H526v-5H524.7L524.7,118.8z M462.4,66.8
		c0,5.5-4.4,9.9-9.9,9.9h-10.8v-5.2h0.6c4,0,5.4-5.8,5.4-7.2v-19h14.7v7.2h49.2c5.3,0,9.6,4.3,9.6,9.7v14.5h-14.4V64.6
		c0-3.9-3.2-7.1-7.1-7.1h-37.4V66.8z"/>
	<path class="st0" d="M231.9,73.6h-7.3V63h7.3V73.6L231.9,73.6z M231.9,128.4h12.9v-15.2h-12.9V128.4L231.9,128.4z M211.9,117.9
		c0,1.2-1.2,6.2-4.6,6.2h-0.6v4.4h9.3c4.7,0,8.4-3.8,8.4-8.4v-6.9h-12.6V117.9L211.9,117.9z M264.4,65.2c-0.5-7,2.2-10.3,8-9.8h2.8
		c7.7,0.5,12.6-2.5,14.7-8.8h-16.1c-1.2,4-3.6,5.7-7.3,5.3h-2.8c-9.1-0.7-13.2,3.7-12.2,13.3v44.1v8.6c0,1.2-0.8,6.2-4.2,6.2h-0.6
		v4.4h9.3c4.7,0,8.4-3.8,8.4-8.5v-18.8h0V76.7h5.6v50.7h13V76.7h6.6v-5.2h-25.2V65.2L264.4,65.2z M231.9,89.7h-7.3V79.1h7.3V89.7
		L231.9,89.7z M231.9,107.2h-7.3V94.9h7.3V107.2L231.9,107.2z M249.7,107.2h-4.9V63h3.8v-5.5h-3.8V46.3h-12.9v11.2h-7.3V46.3h-12.6
		v11.2h-4.2V63h4.2v44.1h-6.6v3.5h44.4V107.2z"/>
	<path class="st0" d="M325.9,115.4v-0.3h-4.4v3c0,4.7,3.8,8.5,8.5,8.5h20.4v-7.6h-18.3C330.9,118.9,325.9,118.8,325.9,115.4
		L325.9,115.4z"/>
	<path class="st0" d="M393,121.9v-14h12.6V103H393V88.6h12.6v-5.2H393V69h14v-4.8h-36.7c0.5-2.1,3.6-14.3,4.5-18.5h-13.3
		c-0.7,3.3-4.3,19-5.6,22l-0.4,1h-12.6c-1.6,2.7-4.8,8.4-6.5,10.8c-1.4,0-2.2-0.7-2.1-2.2c0.2-2,7.4-14.7,17.3-32.1h-14.3
		c-7.9,15.1-14.5,27.5-15.6,31.4c-1.2,4.7,1.5,6.6,7.1,7.5c1.6,0.3,3.3,0.8,5,0.1c-3.5,5.9-4.2,9.2-7.3,14.4c-4.7,8-1.2,13.2,7,13.9
		l0,0h16.8v-5.3h-14.1l18.3-35.8l-0.1,0.2c-1.2,4.9-2.7,8.4-4.6,10.5c2.1,0.2,4,0.1,5.6-0.4v46.9h13.3v-1.5H408v-5.2H393z
		 M379.7,83.4h-9.1v5.2h9.1V103h-9.1v4.8h9.1v14h-10.9V70.8c0.2-0.7,0.4-1.3,0.4-1.8h10.5V83.4z"/>
	<path class="st0" d="M379.7,54.7c0.9,5.1,6.7,7.2,17.5,6.3c-2.6-3.3-4.5-8.3-5.9-15.1h-13.7c0,0.9,0.2,2.3,0.7,4.2
		C379,52.5,379.4,54,379.7,54.7z"/>
	<polygon class="st0" points="206.9,143.6 206.9,152.1 218.9,152.1 218.9,185.5 229.6,185.5 229.6,152.1 241.6,152.1 241.6,143.6 	
		"/>
	<polygon class="st0" points="246.3,185.5 246.3,143.6 257.1,143.6 257.1,158.5 271.8,158.5 271.8,143.6 282.6,143.6 282.6,185.5 
		271.8,185.5 271.8,167.9 257.1,167.9 257.1,185.5 	"/>
	<path class="st0" d="M307.6,171.6h10.3c0.1,2.4,0.8,4.2,2.1,5.4c1.3,1.2,3.3,1.8,5.8,1.8c2.2,0,3.9-0.4,5.1-1.1
		c1.2-0.7,1.8-1.7,1.8-3c0-0.7-0.1-1.3-0.4-1.8c-0.3-0.5-0.7-0.9-1.2-1.2c-0.8-0.4-2.7-1.1-5.7-2c-3-0.9-5.6-1.8-7.7-2.6
		c-3-1.2-5.3-2.8-6.9-4.7c-1.6-2-2.3-4.3-2.3-6.9c0-4,1.5-7.2,4.5-9.5c3-2.3,7-3.5,12.1-3.5h0.2c5,0,8.9,1.3,11.9,3.7
		c3,2.5,4.4,5.8,4.4,10.1h-10.1c-0.2-2-0.9-3.4-2.1-4.3c-1.1-0.9-2.8-1.4-5-1.4c-1.7,0-3.1,0.4-4.2,1.1c-1.1,0.7-1.6,1.6-1.6,2.7
		c0,1.9,2.6,3.6,7.7,5.3c0.9,0.3,1.6,0.5,2.1,0.7l0.4,0.1c5.3,1.7,8.6,3.1,10,4.2c1.3,1.1,2.4,2.4,3.1,3.9c0.7,1.5,1.1,3.1,1.1,5
		c0,4.2-1.6,7.4-4.8,9.7c-3.2,2.3-7.6,3.5-13.3,3.5h-0.3c-5.4,0-9.5-1.3-12.3-3.7C309.5,180.5,307.9,176.7,307.6,171.6z"/>
	<polygon class="st0" points="354.8,185.5 343.3,143.6 354.1,143.6 360,173.3 365.6,143.6 377,143.6 382.5,173.3 388.4,143.6 
		399.2,143.6 387.6,185.5 377.2,185.5 371.2,155.4 365.3,185.5 	"/>
	<path class="st0" d="M413.9,169.2h9.2l-4.7-14.4L413.9,169.2L413.9,169.2z M412.9,143.6h11.7l14.8,41.9h-11.5l-2.6-7.7h-14
		l-2.4,7.7h-11.1L412.9,143.6z"/>
	<path class="st0" d="M454.2,161.6h8c2.2,0,3.7-0.4,4.8-1.2c1-0.8,1.5-2.1,1.5-3.8c0-1.5-0.5-2.7-1.5-3.4c-1-0.7-2.5-1.1-4.5-1.1
		h-8.3V161.6L454.2,161.6z M443.5,185.5v-41.9h20c5.3,0,9.2,0.9,11.7,2.8c2.5,1.9,3.8,4.8,3.8,8.8c0,2.4-0.5,4.4-1.6,6
		c-1.1,1.7-2.7,3.1-5,4.2c1.8,0.7,3.1,1.7,3.9,2.9c0.8,1.2,1.2,3.3,1.3,6.4c0.1,0.9,0.1,2,0.2,3.4c0.1,3.4,0.7,5.3,1.7,5.9v1.5
		h-11.2c-0.5-1.5-0.9-3.5-0.9-6.1c-0.1-2.6-0.2-4.2-0.2-4.9c-0.2-1.6-0.7-2.8-1.6-3.6c-0.9-0.8-2.3-1.1-4.2-1.1h-7.2v15.7H443.5z"/>
	<polygon class="st0" points="486.3,185.5 486.3,143.6 518.1,143.6 518.1,152.2 497,152.2 497,159.6 516.3,159.6 516.3,168 497,168 
		497,177 518.8,177 518.8,185.5 	"/>
	<g>
		<path class="st0" d="M55.6,174c13.4-1.6,23.7-10.8,23.7-24.4c0-6.8-2.9-13.1-7.4-17.5c-7-7.7-11.3-17.9-11.3-29.1
			c0-11.5,4.5-21.9,11.8-29.6c16.3-17.7,40.4-32.5,66.1-38.3H51C37.2,35.2,26,46.4,26,60.2v101.6c0,5,1.5,9.6,4,13.6
			C38.1,176.2,48.3,174.9,55.6,174z"/>
		<path class="st0" d="M162.2,51.7c-29.2,0-59.2,15.7-77,36.1c-3.4,4.1-5.5,9.5-5.5,15.3c0,6.3,2.5,12.1,6.5,16.4
			c7.6,7.8,12.2,18.5,12.2,30.2c0,15.8-8.4,29.6-21,37.2h75.3c13.8,0,25.1-11.3,25.1-25.1V60.2c0-3.2-0.6-6.3-1.8-9.2
			C171.3,51.1,166.7,51.4,162.2,51.7z"/>
	</g>
</g>
</svg>
